Coordinates
version=1
nRows=5
nColumns=40
inDegrees=yes

Units are S.I. units (second, meters, Newtons, ...)
Angles are in degrees.

endheader
time	pelvis_tilt	pelvis_list	pelvis_rotation	pelvis_tx	pelvis_ty	pelvis_tz	hip_flexion_r	hip_adduction_r	hip_rotation_r	knee_angle_r	knee_angle_r_beta	ankle_angle_r	subtalar_angle_r	mtp_angle_r	hip_flexion_l	hip_adduction_l	hip_rotation_l	knee_angle_l	knee_angle_l_beta	ankle_angle_l	subtalar_angle_l	mtp_angle_l	lumbar_extension	lumbar_bending	lumbar_rotation	arm_flex_r	arm_add_r	arm_rot_r	elbow_flex_r	pro_sup_r	wrist_flex_r	wrist_dev_r	arm_flex_l	arm_add_l	arm_rot_l	elbow_flex_l	pro_sup_l	wrist_flex_l	wrist_dev_l
      0.00000000	    -10.85906338	      7.45153298	     -7.22261808	     -1.44818246	      0.87545530	     -0.37026451	     -9.36422687	     -9.86380604	     -3.33365027	    -25.07319305	     -0.43760977	    -29.55912093	      0.58480571	     18.44426121	     65.47793995	      0.10206197	     10.95929964	    -70.45691123	     -1.22970508	     -9.95498785	     18.88894626	     26.32067512	    -10.13189257	     -8.52088030	     15.45312781	      8.49405855	    -11.37358810	     15.33571367	    122.92437036	     89.95437384	      0.00000000	      0.00000000	    -45.03826073	     29.58652433	     22.08066145	     85.85337399	     89.95437384	      0.00000000	      0.00000000
      0.01000000	    -11.07603830	      7.15112575	     -7.50550756	     -1.40050342	      0.87933377	     -0.36953175	    -10.73561011	     -9.73478495	     -2.15694822	    -24.66872917	     -0.43055055	    -32.87185979	     -0.36330183	     19.23581299	     65.02003880	      0.79152138	     11.33585928	    -64.14350996	     -1.11951544	    -11.30400460	     18.64401396	     26.47115981	     -9.47825881	     -8.59354359	     16.44709537	      7.88333563	    -11.65010655	     15.85723439	    124.57461997	     89.95437384	      0.00000000	      0.00000000	    -45.09347346	     30.10297620	     21.66460391	     86.28846646	     89.95437384	      0.00000000	      0.00000000
      0.02000000	    -11.29283424	      6.64277852	     -7.81530309	     -1.35268046	      0.88233366	     -0.36877096	    -11.43051095	     -9.22015373	     -0.68517041	    -25.57080873	     -0.44629480	    -34.34468517	     -3.05944214	     20.24199363	     64.11295490	      1.50833387	     11.55059187	    -57.73751556	     -1.00770975	    -12.55646767	     18.44589911	     26.34241479	     -8.78763372	     -8.38866023	     17.42417732	      6.88206892	    -12.17562722	     16.42093575	    125.71968311	     89.95437384	      0.00000000	      0.00000000	    -44.67310667	     30.62029151	     20.83001845	     86.39490582	     89.95437384	      0.00000000	      0.00000000
      0.03000000	    -11.48694417	      6.15989996	     -8.01684521	     -1.30463806	      0.88420371	     -0.36841320	    -11.67996112	     -8.71604710	      0.41862185	    -27.40775483	     -0.47835556	    -34.03579492	     -5.18091144	     20.77226400	     62.81330276	      2.08397542	     12.06495516	    -51.27060714	     -0.89484090	    -13.85122358	     18.31983502	     26.31133858	     -8.07262596	     -8.17850889	     18.29707591	      5.40752509	    -12.87223422	     16.74500656	    126.37847369	     89.95437384	      0.00000000	      0.00000000	    -43.72733506	     31.13647396	     19.61991072	     86.45318477	     89.95437384	      0.00000000	      0.00000000
      0.04000000	    -11.48152409	      5.35854366	     -8.07326696	     -1.25591019	      0.88546220	     -0.36804267	    -11.95792576	     -7.68250372	      1.66938365	    -29.61391291	     -0.51686028	    -33.43745185	     -7.11701384	     21.13678880	     61.01748097	      2.63649540	     12.39174510	    -45.16370319	     -0.78825532	    -14.61292187	     18.24689199	     26.16192640	     -7.53471295	     -7.61233540	     18.82860566	      3.68598232	    -13.55328514	     17.00530786	    126.24721527	     89.95437384	      0.00000000	      0.00000000	    -42.50021291	     31.47387203	     18.27176308	     86.22401997	     89.95437384	      0.00000000	      0.00000000
